<svg width="29" height="29" viewBox="0 0 29 29" fill="none" xmlns="http://www.w3.org/2000/svg">
<path d="M14.5 0C6.48604 0.029361 0 6.50945 0 14.4989C0 20.5875 3.76743 25.8007 9.10534 27.9484L9.20247 27.9832C9.05732 26.8382 8.95473 25.083 9.24612 23.8216L10.9487 16.6151C10.9487 16.6151 10.5121 15.7451 10.5121 14.4696C10.5121 12.4545 11.6908 10.9604 13.1609 10.9604C14.3974 10.9604 15.0086 11.888 15.0086 12.9906C15.0086 14.2379 14.2086 16.0931 13.7862 17.8189C13.437 19.2684 14.5142 20.4429 15.9548 20.4429C18.5446 20.4429 20.5244 17.7319 20.5244 13.8171C20.5244 10.3373 18.0219 7.93074 14.4422 7.93074C14.3592 7.92639 14.2632 7.92422 14.166 7.92422C10.6856 7.92422 7.86554 10.7353 7.86554 14.202C7.86554 14.2042 7.86554 14.2064 7.86554 14.2086C7.86554 15.4559 8.34574 16.7891 8.94272 17.5144C9.0595 17.659 9.07369 17.7895 9.03003 17.9352L8.62295 19.574C8.56511 19.835 8.40467 19.9079 8.14275 19.7774C6.30924 18.9216 5.17421 16.2975 5.17421 14.152C5.17421 9.58475 8.52145 5.39482 14.8078 5.39482C19.8423 5.39482 23.7865 8.96164 23.7865 13.7605C23.7865 18.7628 20.6139 22.7787 16.22 22.7787C14.7652 22.7787 13.3682 22.0099 12.9022 21.1117L11.9855 24.548C11.5151 26.0019 10.9028 27.2644 10.1432 28.4226L10.1803 28.3617C11.4572 28.7662 12.9262 29 14.4487 29C22.4856 29 29 22.5079 29 14.5011C29 6.51163 22.5151 0.0315358 14.5044 0.00217473H14.5011L14.5 0Z" fill="black"/>
</svg>
